<svg xmlns="http://www.w3.org/2000/svg" x="0px" y="0px" width="210" height="60" viewBox="130 -20 430 210" >
			<path fill="#ffffff" d="M168.6675,3.3325l-3.655,0.1075c0,0 -25.28937,0.33594 -49.665,12.47c-7.83406,3.91031 -15.70844,9.27188 -22.79,16.34c-8.72094,8.72094 -21.02969,23.03188 -32.25,36.55h-29.3475c-0.1075,0 -0.215,0 -0.3225,0c-0.92719,0.09406 -1.78719,0.55094 -2.365,1.29l-17.2,20.64c-0.72562,0.91375 -0.95406,2.13656 -0.57781,3.23844c0.36281,1.10188 1.27656,1.94844 2.40531,2.24406l20.9625,5.2675c-0.16125,0.20156 -1.1825,1.505 -1.1825,1.505l-0.43,0.43l-0.215,0.645c0,0 -0.29562,1.20938 -0.215,2.365c0.02688,0.43 0.1075,0.99438 0.215,1.505l-7.4175,12.47c0,0 -0.33594,0.67188 -0.43,1.075c-0.09406,0.40313 -0.12094,0.90031 -0.1075,1.3975c0.02688,0.99438 0.26875,2.10969 0.86,3.44c1.1825,2.66063 3.70875,6.18125 9.1375,11.61c5.42875,5.41531 8.93594,7.955 11.61,9.1375c1.33031,0.59125 2.44563,0.83313 3.44,0.86c0.49719,0.01344 0.99438,-0.01344 1.3975,-0.1075c0.40313,-0.09406 1.075,-0.43 1.075,-0.43l12.5775,-7.4175c0.47031,0.09406 1.00781,0.18813 1.3975,0.215c1.15563,0.08063 2.365,-0.215 2.365,-0.215l0.645,-0.215l0.5375,-0.43c0,0 1.22281,-0.94062 1.3975,-1.075l5.2675,20.855c0.29563,1.12875 1.14219,2.0425 2.24406,2.40531c1.10187,0.37625 2.32469,0.14781 3.23844,-0.57781l20.64,-17.2c0.81969,-0.65844 1.29,-1.63937 1.29,-2.6875v-29.455c13.61219,-11.31437 28.01719,-23.60969 36.55,-32.1425c7.04125,-7.05469 12.32219,-14.9425 16.2325,-22.79c12.08031,-24.33531 12.5775,-49.665 12.5775,-49.665zM161.25,10.75c-0.28219,5.17344 -1.63937,23.22 -11.395,42.8925c-3.62812,7.29656 -8.4925,14.5125 -14.9425,20.9625c-8.385,8.385 -23.13937,20.9625 -36.8725,32.3575c-0.28219,0.17469 -0.5375,0.38969 -0.7525,0.645c-16.08469,13.33 -30.59719,24.87281 -31.4975,25.585c-0.40312,-0.04031 -1.03469,-0.08062 -2.15,-0.5375c-2.56656,-1.04812 -7.06812,-3.73562 -13.76,-10.4275c-6.69187,-6.69187 -9.48687,-11.30094 -10.535,-13.8675c-0.45687,-1.11531 -0.49719,-1.74687 -0.5375,-2.15c0.71219,-0.90031 12.09375,-15.25156 25.37,-31.2825c0.36281,-0.29562 0.645,-0.65844 0.86,-1.075c11.27406,-13.59875 23.77094,-28.17844 32.3575,-36.765c6.47688,-6.47687 13.67938,-11.30094 20.9625,-14.9425c19.69938,-9.79594 37.7325,-11.12625 42.8925,-11.395zM116.96,37.84c-9.46,0 -17.2,7.74 -17.2,17.2c0,9.46 7.74,17.2 17.2,17.2c9.46,0 17.2,-7.74 17.2,-17.2c0,-9.46 -7.74,-17.2 -17.2,-17.2zM116.96,44.72c5.73781,0 10.32,4.58219 10.32,10.32c0,5.73781 -4.58219,10.32 -10.32,10.32c-5.73781,0 -10.32,-4.58219 -10.32,-10.32c0,-5.73781 4.58219,-10.32 10.32,-10.32zM32.5725,75.68h22.0375c-6.59781,8.04906 -12.02656,14.88875 -16.0175,19.8875l-18.705,-4.73zM35.475,115.5625c1.96188,3.14438 4.8375,6.88 9.46,11.5025c4.60906,4.60906 8.35813,7.49813 11.5025,9.46l-7.4175,4.4075c-0.1075,-0.02687 -0.09406,-0.01344 -0.5375,-0.215c-1.41094,-0.61812 -4.48812,-2.56656 -9.5675,-7.6325c-5.06594,-5.07937 -7.01437,-8.15656 -7.6325,-9.5675c-0.20156,-0.44344 -0.18812,-0.43 -0.215,-0.5375zM96.32,117.39v22.0375l-15.1575,12.685l-4.73,-18.5975c4.98531,-3.99094 11.75781,-9.43312 19.8875,-16.125zM22.0375,131.4725c-5.61687,4.31344 -10.69625,4.86438 -15.265,9.3525c-2.28437,2.24406 -4.09844,5.42875 -5.16,9.7825c-1.06156,4.35375 -1.505,9.97063 -1.505,17.845v3.44h3.44c15.8025,0 23.52906,-2.49937 28.165,-7.2025c4.63594,-4.70312 5.40188,-9.94375 8.9225,-14.7275l-5.59,-4.085c-4.46125,6.07375 -5.45562,11.11281 -8.2775,13.975c-2.48594,2.52625 -8.02219,4.38063 -19.4575,4.8375c0.17469,-4.99875 0.41656,-9.79594 1.075,-12.47c0.86,-3.48031 1.90813,-5.16 3.225,-6.45c2.62031,-2.58 7.75344,-3.73562 14.5125,-8.9225zM48.4825,141.255l-0.3225,0.215v-0.1075c0,0 0.18813,-0.05375 0.3225,-0.1075z">
			</path>
			<text y="130" x="210"  style="font-size:137.6000061px;font-family:sans-serif;fill:#ffffff">
				DenApp
			</text>
			<rect
				style="opacity:1;fill:none;fill-opacity:1;stroke:#ffffff;stroke-width:9;stroke-miterlimit:4;stroke-dasharray:none;stroke-opacity:1"
				id="rect851"
				width="197.82513"
				height="193.59975"
				x="-13.213585"
				y="-10.233113"
				ry="18.95924" />
</svg>